<svg id="Camada_2" data-name="Camada 2" xmlns="http://www.w3.org/2000/svg" xmlns:xlink="http://www.w3.org/1999/xlink" viewBox="0 0 500 500"><defs><style>.cls-1{fill:url(#Gradiente_sem_nome_83);}.cls-2{fill:url(#Gradiente_sem_nome_83-2);}.cls-3{fill:url(#Gradiente_sem_nome_83-3);}</style><linearGradient id="Gradiente_sem_nome_83" x1="136.55" y1="189.68" x2="136.55" y2="248.85" gradientUnits="userSpaceOnUse"><stop offset="0" stop-color="#f97316"/><stop offset="1" stop-color="#e06814"/></linearGradient><linearGradient id="Gradiente_sem_nome_83-2" x1="250" y1="115.58" x2="250" y2="384.42" xlink:href="#Gradiente_sem_nome_83"/><linearGradient id="Gradiente_sem_nome_83-3" x1="171.01" y1="262.06" x2="171.01" y2="321.81" xlink:href="#Gradiente_sem_nome_83"/></defs><path class="cls-1" d="M157.23,248.85h56.29V189.68h-154C75.66,234.49,123.6,248.85,157.23,248.85Z"/><path class="cls-2" d="M495,250a134.42,134.42,0,0,1-268.84,0V189.68H316a76.41,76.41,0,1,0,46.9-16.08H65.32c-24.31-6.17-51.58-33-60.32-58H360.58A134.42,134.42,0,0,1,495,250Z"/><path class="cls-3" d="M231.33,319.55v2.26H187.67c-16.9,0-62.77-22.92-77-59.75H215.4A133.46,133.46,0,0,0,231.33,319.55Z"/></svg>