<svg xmlns="http://www.w3.org/2000/svg" xmlns:xlink="http://www.w3.org/1999/xlink" viewBox="0 0 500 500"><defs><style>.cls-1{fill:url(#Gradiente_sem_nome_83);}.cls-2{fill:url(#Gradiente_sem_nome_83-2);}.cls-3{fill:url(#Gradiente_sem_nome_83-3);}.cls-4{fill:url(#Gradiente_sem_nome_19);}.cls-5{fill:url(#Gradiente_sem_nome_19-2);}.cls-6{fill:url(#Gradiente_sem_nome_19-3);}.cls-7{fill:url(#Gradiente_sem_nome_19-4);}.cls-8{fill:url(#Gradiente_sem_nome_19-5);}</style><linearGradient id="Gradiente_sem_nome_83" x1="151.25" y1="155.5" x2="151.25" y2="207" gradientUnits="userSpaceOnUse"><stop offset="0" stop-color="#f97316"/><stop offset="1" stop-color="#e06814"/></linearGradient><linearGradient id="Gradiente_sem_nome_83-2" x1="250" y1="91" x2="250" y2="325" xlink:href="#Gradiente_sem_nome_83"/><linearGradient id="Gradiente_sem_nome_83-3" x1="181.25" y1="218.5" x2="181.25" y2="270.5" xlink:href="#Gradiente_sem_nome_83"/><linearGradient id="Gradiente_sem_nome_19" x1="76.08" y1="345.9" x2="76.08" y2="409.9" gradientUnits="userSpaceOnUse"><stop offset="0" stop-color="#0a7bf5"/><stop offset="1" stop-color="#0064a9"/></linearGradient><linearGradient id="Gradiente_sem_nome_19-2" x1="163.04" y1="332.3" x2="163.04" y2="410.46" xlink:href="#Gradiente_sem_nome_19"/><linearGradient id="Gradiente_sem_nome_19-3" x1="250.56" y1="345.9" x2="250.56" y2="409.9" xlink:href="#Gradiente_sem_nome_19"/><linearGradient id="Gradiente_sem_nome_19-4" x1="336.96" y1="345.9" x2="336.96" y2="410.46" xlink:href="#Gradiente_sem_nome_19"/><linearGradient id="Gradiente_sem_nome_19-5" x1="423.92" y1="345.34" x2="423.92" y2="410.46" xlink:href="#Gradiente_sem_nome_19"/></defs><g id="Camada_5" data-name="Camada 5"><path class="cls-1" d="M169.25,207h49V155.5h-134C98.25,194.5,140,207,169.25,207Z"/><path class="cls-2" d="M463.25,208a117,117,0,0,1-234,0V155.5h78.18a66.5,66.5,0,1,0,40.82-14h-259c-21.16-5.37-44.89-28.73-52.5-50.5h309.5A117,117,0,0,1,463.25,208Z"/><path class="cls-3" d="M233.75,268.54v2h-38c-14.71,0-54.64-19.95-67-52h91.13A116.27,116.27,0,0,0,233.75,268.54Z"/><path class="cls-4" d="M65.72,345.9H74v27h4.08v-27h8.32v64H78.12V380.54H74V409.9H65.72Z"/><path class="cls-5" d="M155.64,407.78a8.74,8.74,0,0,1-3-6.76V354.78a8.74,8.74,0,0,1,3-6.76,11.56,11.56,0,0,1,14.8,0,8.74,8.74,0,0,1,3,6.76V401a8.74,8.74,0,0,1-3,6.76,11.56,11.56,0,0,1-14.8,0Zm7-75.48h9.12l-5.6,11.2h-6.88Zm-1,70a2,2,0,0,0,1.44.52,2.16,2.16,0,0,0,1.48-.52,1.68,1.68,0,0,0,.6-1.32V354.78a1.68,1.68,0,0,0-.6-1.32,2.16,2.16,0,0,0-1.48-.52,2,2,0,0,0-1.44.52,1.74,1.74,0,0,0-.56,1.32V401A1.74,1.74,0,0,0,161.56,402.34Z"/><path class="cls-6" d="M239.64,345.9H250a10.53,10.53,0,0,1,7.4,2.76,8.92,8.92,0,0,1,3,6.84v19.76a8.77,8.77,0,0,1-1.12,4.44,9.07,9.07,0,0,1-3,3.16l5.2,27h-8.64l-3.44-25H248v25h-8.32ZM250,377.26a2.1,2.1,0,0,0,1.48-.56,1.87,1.87,0,0,0,.6-1.44V355.5a1.87,1.87,0,0,0-.6-1.44,2.1,2.1,0,0,0-1.48-.56h-2v23.76Z"/><path class="cls-7" d="M329.56,407.74a9,9,0,0,1-3-6.88v-55h8.32v55a2.05,2.05,0,0,0,2,2,2.1,2.1,0,0,0,1.48-.56,1.87,1.87,0,0,0,.6-1.44v-55h8.32v55a9,9,0,0,1-3,6.88,10.59,10.59,0,0,1-7.44,2.72A10.46,10.46,0,0,1,329.56,407.74Z"/><path class="cls-8" d="M416.52,407.74a8.92,8.92,0,0,1-3-6.88V384.22h8.32v16.64a2.05,2.05,0,0,0,2,2,2.11,2.11,0,0,0,1.48-.56,1.87,1.87,0,0,0,.6-1.44V385.34a3.67,3.67,0,0,0-1.28-2.88,19.91,19.91,0,0,0-4-2.48,20.86,20.86,0,0,1-5.28-3.44,6.53,6.53,0,0,1-1.84-5V354.94a8.92,8.92,0,0,1,3-6.88,10.46,10.46,0,0,1,7.36-2.72,10.61,10.61,0,0,1,7.44,2.72,9,9,0,0,1,3,6.88v15.12H426V354.94a1.87,1.87,0,0,0-.6-1.44,2.11,2.11,0,0,0-1.48-.56,2,2,0,0,0-1.4.56,1.87,1.87,0,0,0-.6,1.44v14a3.8,3.8,0,0,0,1.32,3,22.71,22.71,0,0,0,4.2,2.68,22.74,22.74,0,0,1,5.08,3.36,6,6,0,0,1,1.8,4.64v18.24a9,9,0,0,1-3,6.88,10.61,10.61,0,0,1-7.44,2.72A10.46,10.46,0,0,1,416.52,407.74Z"/></g></svg>