<svg xmlns="http://www.w3.org/2000/svg" xmlns:xlink="http://www.w3.org/1999/xlink" viewBox="0 0 396.7347 436.989"><defs><style>.cls-1{fill:url(#Gradiente_sem_nome_21);}.cls-2{fill:url(#Gradiente_sem_nome_21-2);}.cls-3{fill:url(#Gradiente_sem_nome_30);}.cls-4{fill:url(#Gradiente_sem_nome_30-2);}</style><linearGradient id="Gradiente_sem_nome_21" x1="198.4336" y1="291.1226" x2="103.8889" y2="127.3662" gradientUnits="userSpaceOnUse"><stop offset="0" stop-color="#c75c12"/><stop offset="1" stop-color="#f97316"/></linearGradient><linearGradient id="Gradiente_sem_nome_21-2" x1="361.5659" y1="247.6454" x2="290.3244" y2="124.2515" xlink:href="#Gradiente_sem_nome_21"/><linearGradient id="Gradiente_sem_nome_30" x1="445.4798" y1="453.876" x2="183.2858" y2="233.8691" gradientUnits="userSpaceOnUse"><stop offset="0" stop-color="#064a93"/><stop offset="1" stop-color="#0a7bf5"/></linearGradient><linearGradient id="Gradiente_sem_nome_30-2" x1="384.2157" y1="104.4306" x2="305.7347" y2="38.5772" xlink:href="#Gradiente_sem_nome_30"/></defs><g id="h_cima"><path class="cls-1" d="M196.5982,122.7289V292.1823c-26.8145,5.631-55.3225,10.2883-84.6773,14.31V122.7289Z" transform="translate(-51.6326 -31.5055)"/><path class="cls-2" d="M373.0092,122.7289v78.27c-15.256,27.76-45.26,48.5484-84.6773,64.5383V122.7289Z" transform="translate(-51.6326 -31.5055)"/></g><g id="h_baixo"><path class="cls-3" d="M378.2865,104.4666c71.1675,131.479-115.301,206.8191-326.6539,214.552,7.8366.6681,52.7037,1.2477,60.2883,1.7443V468.4945h84.6773V322.8115c33.976-.7282,64.5665-3.4638,91.7337-7.89V468.4945h84.6773V291.5189C470.9553,249.1527,474.1662,171.3885,378.2865,104.4666Z" transform="translate(-51.6326 -31.5055)"/></g><g id="aviao"><path class="cls-4" d="M311.2863,36.98c-1.107-5.0586.1219-5.0071.1219-5.0071s.0514-1.2289,5,.2973c2.3106.7127,7.0733,5.1326,11.4943,9.6421,2.6657,2.57,5.8978,5.78,9.6631,9.6834,2.3911-.2337,6.3678-.6191,11.0744-1.0617l-2.8-3.0453a1.9257,1.9257,0,0,1,.1139-2.7211l.5487-.5046a1.9258,1.9258,0,0,1,2.7212.114l5.17,5.6218c2.8388-.261,5.7971-.5281,8.73-.7854l-2.555-2.7784a1.9258,1.9258,0,0,1,.114-2.7212l.5487-.5046a1.9257,1.9257,0,0,1,2.7211.114l4.96,5.3934c9.4644-.7916,17.5679-1.3553,18.91-1.0961a24.9441,24.9441,0,0,1,3.7446,2.9707c.6655.9072-.1429,1.313-1.3718,1.2616-.69-.0289-10.7083,3.353-19.5147,6.3785l.1109.1206a.7807.7807,0,0,1-.0462,1.1032l-.2224.2045a.7807.7807,0,0,1-1.1032-.0462l-.6624-.72c-.9538.3286-1.8828.6492-2.7728.9569l.1494.1625a.7807.7807,0,0,1-.0462,1.1032l-.2224.2046a.7808.7808,0,0,1-1.1032-.0463l-.6982-.7593c-.8431.2922-1.6334.5664-2.3561.8175l.1477.1606a.7807.7807,0,0,1-.0462,1.1032l-.2225.2046a.7808.7808,0,0,1-1.1032-.0462L359.7889,62c-1.4422.5022-2.36.8231-2.5031.8736a10.9764,10.9764,0,0,0-1.1541.5806l.2622.2852a1.4572,1.4572,0,0,1-.0862,2.0592l-.4153.3819a1.4573,1.4573,0,0,1-2.0592-.0863l-.7946-.8641c-.7109.4185-1.3643.8075-1.8261,1.0837q5.73,6.404,12.3739,14.2284s3.5828,4.4557,7.2118,9.7369l19.2984-1.7066s5.8187,1.7386,4.6078,3.3586c0,0-9.1153,3.4873-10.3736,4.1381-.9492.4908-5.7081,2.3727-7.99,3.268q.3043.6015.57,1.1785c.9962,1.7069,1.7534,3.1269,1.7534,3.1269l-.2823.26,1.8762,2.04a.61.61,0,1,1-.8986.8264l-1.8763-2.04-.2823.26s-1.3517-.8732-2.9694-2.0086q-.5515-.3123-1.1266-.6672c-1.083,2.1989-3.3562,6.7838-3.9247,7.6885-.7537,1.2-4.9911,9.9912-4.9911,9.9912-1.7156,1.0713-2.9615-4.8724-2.9615-4.8724l3.3145-19.0881c-4.9592-4.058-9.1-8.0008-9.1-8.0008q-7.2561-7.2687-13.1438-13.52c-.3138.4371-.7561,1.0556-1.2326,1.729l.7946.8641a1.4573,1.4573,0,0,1-.0862,2.0593l-.4153.3819a1.4573,1.4573,0,0,1-2.0592-.0863l-.2623-.2852a10.989,10.989,0,0,0-.675,1.1015c-.0624.1388-.4588,1.0261-1.08,2.4213l.6943.755a.7808.7808,0,0,1-.0462,1.1031l-.2225.2046a.7807.7807,0,0,1-1.1031-.0462l-.1478-.1607c-.3106.6992-.65,1.4638-1.0116,2.2795l.6982.7593a.7807.7807,0,0,1-.0462,1.1032l-.2224.2046a.7808.7808,0,0,1-1.1032-.0463l-.1494-.1624c-.381.8611-.7783,1.76-1.1854,2.6829l.6624.72a.7807.7807,0,0,1-.0462,1.1032l-.2224.2046a.7807.7807,0,0,1-1.1032-.0462l-.1109-.1206c-3.7514,8.5225-7.9592,18.2225-7.9882,18.9128-.0514,1.229-.5234,2.0006-1.3718,1.2616a24.9443,24.9443,0,0,1-2.6471-3.98c-.1461-1.3591,1.0933-9.3871,2.6737-18.752l-4.96-5.3935a1.9257,1.9257,0,0,1,.1139-2.7211l.5488-.5047a1.9258,1.9258,0,0,1,2.7211.114l2.555,2.7784c.5018-2.9014,1.0153-5.827,1.5128-8.634l-5.17-5.6219a1.9257,1.9257,0,0,1,.114-2.7211l.5487-.5047a1.9259,1.9259,0,0,1,2.7212.114l2.8,3.0453c.8348-4.6531,1.5513-8.5837,1.9842-10.9469-3.5746-4.0785-6.5035-7.5677-8.8414-10.439C315.8094,44.458,311.8033,39.3423,311.2863,36.98Z" transform="translate(-51.6326 -31.5055)"/></g></svg>